<?xml version="1.0" encoding="UTF-8" standalone="no"?><svg xmlns="http://www.w3.org/2000/svg" xmlns:xlink= "http://www.w3.org/1999/xlink" width="1340" height="591" aria-label="A chart." style="overflow: hidden;"><defs id="_ABSTRACT_RENDERER_ID_0"><clipPath id="_ABSTRACT_RENDERER_ID_1"><rect x="207" y="113" width="926" height="365"></rect></clipPath></defs><rect x="0" y="0" width="1340" height="591" stroke="none" stroke-width="0" fill="#ffffff"></rect><g><text text-anchor="start" x="207" y="83.25" font-family="Arial" font-size="25" font-weight="bold" stroke="none" stroke-width="0" fill="#000000">Histogram</text><rect x="207" y="62" width="926" height="25" stroke="none" stroke-width="0" fill-opacity="0" fill="#ffffff"></rect></g><g><rect x="1149" y="113" width="175" height="94" stroke="none" stroke-width="0" fill-opacity="0" fill="#ffffff"></rect><g><rect x="1149" y="113" width="175" height="16" stroke="none" stroke-width="0" fill-opacity="0" fill="#ffffff"></rect><g><text text-anchor="start" x="1187" y="126.6" font-family="Arial" font-size="16" stroke="none" stroke-width="0" fill="#222222">Poor (count)</text></g><rect x="1149" y="113" width="32" height="16" stroke="none" stroke-width="0" fill="#d7191c"></rect></g><g><rect x="1149" y="139" width="175" height="16" stroke="none" stroke-width="0" fill-opacity="0" fill="#ffffff"></rect><g><text text-anchor="start" x="1187" y="152.6" font-family="Arial" font-size="16" stroke="none" stroke-width="0" fill="#222222">Fair (count)</text></g><rect x="1149" y="139" width="32" height="16" stroke="none" stroke-width="0" fill="#fdae61"></rect></g><g><rect x="1149" y="165" width="175" height="16" stroke="none" stroke-width="0" fill-opacity="0" fill="#ffffff"></rect><g><text text-anchor="start" x="1187" y="178.6" font-family="Arial" font-size="16" stroke="none" stroke-width="0" fill="#222222">Healthy (count)</text></g><rect x="1149" y="165" width="32" height="16" stroke="none" stroke-width="0" fill="#abdda4"></rect></g><g><rect x="1149" y="191" width="175" height="16" stroke="none" stroke-width="0" fill-opacity="0" fill="#ffffff"></rect><g><text text-anchor="start" x="1187" y="204.6" font-family="Arial" font-size="16" stroke="none" stroke-width="0" fill="#222222">Thriving (count)</text></g><rect x="1149" y="191" width="32" height="16" stroke="none" stroke-width="0" fill="#16a200"></rect></g></g><g><rect x="207" y="113" width="926" height="365" stroke="none" stroke-width="0" fill="#ffffff"></rect><g clip-path="url(https://www.statskingdom.com/histogram-maker.html#_ABSTRACT_RENDERER_ID_1)"><g><rect x="207" y="477" width="926" height="1" stroke="none" stroke-width="0" fill="#cccccc"></rect><rect x="207" y="437" width="926" height="1" stroke="none" stroke-width="0" fill="#cccccc"></rect><rect x="207" y="396" width="926" height="1" stroke="none" stroke-width="0" fill="#cccccc"></rect><rect x="207" y="356" width="926" height="1" stroke="none" stroke-width="0" fill="#cccccc"></rect><rect x="207" y="315" width="926" height="1" stroke="none" stroke-width="0" fill="#cccccc"></rect><rect x="207" y="275" width="926" height="1" stroke="none" stroke-width="0" fill="#cccccc"></rect><rect x="207" y="234" width="926" height="1" stroke="none" stroke-width="0" fill="#cccccc"></rect><rect x="207" y="194" width="926" height="1" stroke="none" stroke-width="0" fill="#cccccc"></rect><rect x="207" y="153" width="926" height="1" stroke="none" stroke-width="0" fill="#cccccc"></rect><rect x="207" y="113" width="926" height="1" stroke="none" stroke-width="0" fill="#cccccc"></rect><rect x="207" y="457" width="926" height="1" stroke="none" stroke-width="0" fill="#ebebeb"></rect><rect x="207" y="416" width="926" height="1" stroke="none" stroke-width="0" fill="#ebebeb"></rect><rect x="207" y="376" width="926" height="1" stroke="none" stroke-width="0" fill="#ebebeb"></rect><rect x="207" y="335" width="926" height="1" stroke="none" stroke-width="0" fill="#ebebeb"></rect><rect x="207" y="295" width="926" height="1" stroke="none" stroke-width="0" fill="#ebebeb"></rect><rect x="207" y="255" width="926" height="1" stroke="none" stroke-width="0" fill="#ebebeb"></rect><rect x="207" y="214" width="926" height="1" stroke="none" stroke-width="0" fill="#ebebeb"></rect><rect x="207" y="174" width="926" height="1" stroke="none" stroke-width="0" fill="#ebebeb"></rect><rect x="207" y="133" width="926" height="1" stroke="none" stroke-width="0" fill="#ebebeb"></rect></g><g><rect x="208.5" y="477" width="8" height="0.5" stroke="none" stroke-width="0" fill="#d7191c"></rect><rect x="244.5" y="476" width="7" height="1" stroke="none" stroke-width="0" fill="#d7191c"></rect><rect x="279.5" y="472" width="8" height="5" stroke="none" stroke-width="0" fill="#d7191c"></rect><rect x="315.5" y="465" width="7" height="12" stroke="none" stroke-width="0" fill="#d7191c"></rect><rect x="350.5" y="465" width="8" height="12" stroke="none" stroke-width="0" fill="#d7191c"></rect><rect x="386.5" y="477" width="8" height="0.5" stroke="none" stroke-width="0" fill="#d7191c"></rect><rect x="421.5" y="477" width="8" height="0.5" stroke="none" stroke-width="0" fill="#d7191c"></rect><rect x="457.5" y="477" width="8" height="0.5" stroke="none" stroke-width="0" fill="#d7191c"></rect><rect x="493.5" y="477" width="7" height="0.5" stroke="none" stroke-width="0" fill="#d7191c"></rect><rect x="528.5" y="477" width="8" height="0.5" stroke="none" stroke-width="0" fill="#d7191c"></rect><rect x="564.5" y="477" width="7" height="0.5" stroke="none" stroke-width="0" fill="#d7191c"></rect><rect x="599.5" y="477" width="8" height="0.5" stroke="none" stroke-width="0" fill="#d7191c"></rect><rect x="635.5" y="477" width="8" height="0.5" stroke="none" stroke-width="0" fill="#d7191c"></rect><rect x="670.5" y="477" width="8" height="0.5" stroke="none" stroke-width="0" fill="#d7191c"></rect><rect x="706.5" y="477" width="8" height="0.5" stroke="none" stroke-width="0" fill="#d7191c"></rect><rect x="742.5" y="477" width="7" height="0.5" stroke="none" stroke-width="0" fill="#d7191c"></rect><rect x="777.5" y="477" width="8" height="0.5" stroke="none" stroke-width="0" fill="#d7191c"></rect><rect x="813.5" y="477" width="7" height="0.5" stroke="none" stroke-width="0" fill="#d7191c"></rect><rect x="848.5" y="477" width="8" height="0.5" stroke="none" stroke-width="0" fill="#d7191c"></rect><rect x="884.5" y="477" width="8" height="0.5" stroke="none" stroke-width="0" fill="#d7191c"></rect><rect x="920.5" y="477" width="7" height="0.5" stroke="none" stroke-width="0" fill="#d7191c"></rect><rect x="955.5" y="477" width="8" height="0.5" stroke="none" stroke-width="0" fill="#d7191c"></rect><rect x="991.5" y="477" width="7" height="0.5" stroke="none" stroke-width="0" fill="#d7191c"></rect><rect x="1026.5" y="477" width="8" height="0.5" stroke="none" stroke-width="0" fill="#d7191c"></rect><rect x="1062.5" y="477" width="7" height="0.5" stroke="none" stroke-width="0" fill="#d7191c"></rect><rect x="1097.5" y="477" width="8" height="0.5" stroke="none" stroke-width="0" fill="#d7191c"></rect><rect x="1133.5" y="477" width="8" height="0.5" stroke="none" stroke-width="0" fill="#d7191c"></rect><rect x="217.5" y="477" width="7" height="0.5" stroke="none" stroke-width="0" fill="#fdae61"></rect><rect x="252.5" y="477" width="8" height="0.5" stroke="none" stroke-width="0" fill="#fdae61"></rect><rect x="288.5" y="477" width="7" height="0.5" stroke="none" stroke-width="0" fill="#fdae61"></rect><rect x="323.5" y="477" width="8" height="0.5" stroke="none" stroke-width="0" fill="#fdae61"></rect><rect x="359.5" y="477" width="8" height="0.5" stroke="none" stroke-width="0" fill="#fdae61"></rect><rect x="395.5" y="453" width="7" height="24" stroke="none" stroke-width="0" fill="#fdae61"></rect><rect x="430.5" y="456" width="8" height="21" stroke="none" stroke-width="0" fill="#fdae61"></rect><rect x="466.5" y="446" width="7" height="31" stroke="none" stroke-width="0" fill="#fdae61"></rect><rect x="501.5" y="450" width="8" height="27" stroke="none" stroke-width="0" fill="#fdae61"></rect><rect x="537.5" y="447" width="7" height="30" stroke="none" stroke-width="0" fill="#fdae61"></rect><rect x="572.5" y="403" width="8" height="74" stroke="none" stroke-width="0" fill="#fdae61"></rect><rect x="608.5" y="440" width="8" height="37" stroke="none" stroke-width="0" fill="#fdae61"></rect><rect x="644.5" y="429" width="7" height="48" stroke="none" stroke-width="0" fill="#fdae61"></rect><rect x="679.5" y="477" width="8" height="0.5" stroke="none" stroke-width="0" fill="#fdae61"></rect><rect x="715.5" y="477" width="7" height="0.5" stroke="none" stroke-width="0" fill="#fdae61"></rect><rect x="750.5" y="477" width="8" height="0.5" stroke="none" stroke-width="0" fill="#fdae61"></rect><rect x="786.5" y="477" width="8" height="0.5" stroke="none" stroke-width="0" fill="#fdae61"></rect><rect x="821.5" y="477" width="8" height="0.5" stroke="none" stroke-width="0" fill="#fdae61"></rect><rect x="857.5" y="477" width="8" height="0.5" stroke="none" stroke-width="0" fill="#fdae61"></rect><rect x="893.5" y="477" width="7" height="0.5" stroke="none" stroke-width="0" fill="#fdae61"></rect><rect x="928.5" y="477" width="8" height="0.5" stroke="none" stroke-width="0" fill="#fdae61"></rect><rect x="964.5" y="477" width="7" height="0.5" stroke="none" stroke-width="0" fill="#fdae61"></rect><rect x="999.5" y="477" width="8" height="0.5" stroke="none" stroke-width="0" fill="#fdae61"></rect><rect x="1035.5" y="477" width="8" height="0.5" stroke="none" stroke-width="0" fill="#fdae61"></rect><rect x="1070.5" y="477" width="8" height="0.5" stroke="none" stroke-width="0" fill="#fdae61"></rect><rect x="1106.5" y="477" width="8" height="0.5" stroke="none" stroke-width="0" fill="#fdae61"></rect><rect x="1142.5" y="477" width="7" height="0.5" stroke="none" stroke-width="0" fill="#fdae61"></rect><rect x="225.5" y="477" width="8" height="0.5" stroke="none" stroke-width="0" fill="#abdda4"></rect><rect x="261.5" y="477" width="8" height="0.5" stroke="none" stroke-width="0" fill="#abdda4"></rect><rect x="296.5" y="477" width="8" height="0.5" stroke="none" stroke-width="0" fill="#abdda4"></rect><rect x="332.5" y="477" width="8" height="0.5" stroke="none" stroke-width="0" fill="#abdda4"></rect><rect x="368.5" y="477" width="7" height="0.5" stroke="none" stroke-width="0" fill="#abdda4"></rect><rect x="403.5" y="477" width="8" height="0.5" stroke="none" stroke-width="0" fill="#abdda4"></rect><rect x="439.5" y="477" width="7" height="0.5" stroke="none" stroke-width="0" fill="#abdda4"></rect><rect x="474.5" y="477" width="8" height="0.5" stroke="none" stroke-width="0" fill="#abdda4"></rect><rect x="510.5" y="477" width="8" height="0.5" stroke="none" stroke-width="0" fill="#abdda4"></rect><rect x="545.5" y="477" width="8" height="0.5" stroke="none" stroke-width="0" fill="#abdda4"></rect><rect x="581.5" y="477" width="8" height="0.5" stroke="none" stroke-width="0" fill="#abdda4"></rect><rect x="617.5" y="477" width="7" height="0.5" stroke="none" stroke-width="0" fill="#abdda4"></rect><rect x="652.5" y="422" width="8" height="55" stroke="none" stroke-width="0" fill="#abdda4"></rect><rect x="688.5" y="305" width="7" height="172" stroke="none" stroke-width="0" fill="#abdda4"></rect><rect x="723.5" y="263" width="8" height="214" stroke="none" stroke-width="0" fill="#abdda4"></rect><rect x="759.5" y="237" width="8" height="240" stroke="none" stroke-width="0" fill="#abdda4"></rect><rect x="795.5" y="138" width="7" height="339" stroke="none" stroke-width="0" fill="#abdda4"></rect><rect x="830.5" y="381" width="8" height="96" stroke="none" stroke-width="0" fill="#abdda4"></rect><rect x="866.5" y="341" width="7" height="136" stroke="none" stroke-width="0" fill="#abdda4"></rect><rect x="901.5" y="382" width="8" height="95" stroke="none" stroke-width="0" fill="#abdda4"></rect><rect x="937.5" y="477" width="7" height="0.5" stroke="none" stroke-width="0" fill="#abdda4"></rect><rect x="972.5" y="477" width="8" height="0.5" stroke="none" stroke-width="0" fill="#abdda4"></rect><rect x="1008.5" y="477" width="8" height="0.5" stroke="none" stroke-width="0" fill="#abdda4"></rect><rect x="1044.5" y="477" width="7" height="0.5" stroke="none" stroke-width="0" fill="#abdda4"></rect><rect x="1079.5" y="477" width="8" height="0.5" stroke="none" stroke-width="0" fill="#abdda4"></rect><rect x="1115.5" y="477" width="7" height="0.5" stroke="none" stroke-width="0" fill="#abdda4"></rect><rect x="1150.5" y="477" width="8" height="0.5" stroke="none" stroke-width="0" fill="#abdda4"></rect><rect x="234.5" y="477" width="8" height="0.5" stroke="none" stroke-width="0" fill="#16a200"></rect><rect x="270.5" y="477" width="7" height="0.5" stroke="none" stroke-width="0" fill="#16a200"></rect><rect x="305.5" y="477" width="8" height="0.5" stroke="none" stroke-width="0" fill="#16a200"></rect><rect x="341.5" y="477" width="7" height="0.5" stroke="none" stroke-width="0" fill="#16a200"></rect><rect x="376.5" y="477" width="8" height="0.5" stroke="none" stroke-width="0" fill="#16a200"></rect><rect x="412.5" y="477" width="7" height="0.5" stroke="none" stroke-width="0" fill="#16a200"></rect><rect x="447.5" y="477" width="8" height="0.5" stroke="none" stroke-width="0" fill="#16a200"></rect><rect x="483.5" y="477" width="8" height="0.5" stroke="none" stroke-width="0" fill="#16a200"></rect><rect x="519.5" y="477" width="7" height="0.5" stroke="none" stroke-width="0" fill="#16a200"></rect><rect x="554.5" y="477" width="8" height="0.5" stroke="none" stroke-width="0" fill="#16a200"></rect><rect x="590.5" y="477" width="7" height="0.5" stroke="none" stroke-width="0" fill="#16a200"></rect><rect x="625.5" y="477" width="8" height="0.5" stroke="none" stroke-width="0" fill="#16a200"></rect><rect x="661.5" y="477" width="7" height="0.5" stroke="none" stroke-width="0" fill="#16a200"></rect><rect x="696.5" y="477" width="8" height="0.5" stroke="none" stroke-width="0" fill="#16a200"></rect><rect x="732.5" y="477" width="8" height="0.5" stroke="none" stroke-width="0" fill="#16a200"></rect><rect x="768.5" y="477" width="7" height="0.5" stroke="none" stroke-width="0" fill="#16a200"></rect><rect x="803.5" y="477" width="8" height="0.5" stroke="none" stroke-width="0" fill="#16a200"></rect><rect x="839.5" y="477" width="7" height="0.5" stroke="none" stroke-width="0" fill="#16a200"></rect><rect x="874.5" y="477" width="8" height="0.5" stroke="none" stroke-width="0" fill="#16a200"></rect><rect x="910.5" y="477" width="8" height="0.5" stroke="none" stroke-width="0" fill="#16a200"></rect><rect x="945.5" y="399" width="8" height="78" stroke="none" stroke-width="0" fill="#16a200"></rect><rect x="981.5" y="408" width="8" height="69" stroke="none" stroke-width="0" fill="#16a200"></rect><rect x="1017.5" y="406" width="7" height="71" stroke="none" stroke-width="0" fill="#16a200"></rect><rect x="1052.5" y="464" width="8" height="13" stroke="none" stroke-width="0" fill="#16a200"></rect><rect x="1088.5" y="467" width="7" height="10" stroke="none" stroke-width="0" fill="#16a200"></rect><rect x="1123.5" y="475" width="8" height="2" stroke="none" stroke-width="0" fill="#16a200"></rect><rect x="1159.5" y="477" width="8" height="0.5" stroke="none" stroke-width="0" fill="#16a200"></rect></g><g><rect x="207" y="477" width="926" height="1" stroke="none" stroke-width="0" fill="#333333"></rect></g></g><g></g><g><g><text text-anchor="middle" x="207.5" y="501.6" font-family="Arial" font-size="16" stroke="none" stroke-width="0" fill="#444444">0.36</text></g><g><text text-anchor="middle" x="243.0769230769231" y="522.6" font-family="Arial" font-size="16" stroke="none" stroke-width="0" fill="#444444">0.38</text></g><g><text text-anchor="middle" x="278.6538461538462" y="501.6" font-family="Arial" font-size="16" stroke="none" stroke-width="0" fill="#444444">0.40</text></g><g><text text-anchor="middle" x="314.23076923076917" y="522.6" font-family="Arial" font-size="16" stroke="none" stroke-width="0" fill="#444444">0.42</text></g><g><text text-anchor="middle" x="349.8076923076924" y="501.6" font-family="Arial" font-size="16" stroke="none" stroke-width="0" fill="#444444">0.44</text></g><g><text text-anchor="middle" x="385.3846153846155" y="522.6" font-family="Arial" font-size="16" stroke="none" stroke-width="0" fill="#444444">0.46</text></g><g><text text-anchor="middle" x="420.96153846153845" y="501.6" font-family="Arial" font-size="16" stroke="none" stroke-width="0" fill="#444444">0.48</text></g><g><text text-anchor="middle" x="456.53846153846155" y="522.6" font-family="Arial" font-size="16" stroke="none" stroke-width="0" fill="#444444">0.50</text></g><g><text text-anchor="middle" x="492.11538461538464" y="501.6" font-family="Arial" font-size="16" stroke="none" stroke-width="0" fill="#444444">0.52</text></g><g><text text-anchor="middle" x="527.6923076923077" y="522.6" font-family="Arial" font-size="16" stroke="none" stroke-width="0" fill="#444444">0.54</text></g><g><text text-anchor="middle" x="563.2692307692308" y="501.6" font-family="Arial" font-size="16" stroke="none" stroke-width="0" fill="#444444">0.56</text></g><g><text text-anchor="middle" x="598.8461538461537" y="522.6" font-family="Arial" font-size="16" stroke="none" stroke-width="0" fill="#444444">0.58</text></g><g><text text-anchor="middle" x="634.4230769230768" y="501.6" font-family="Arial" font-size="16" stroke="none" stroke-width="0" fill="#444444">0.60</text></g><g><text text-anchor="middle" x="669.9999999999999" y="522.6" font-family="Arial" font-size="16" stroke="none" stroke-width="0" fill="#444444">0.62</text></g><g><text text-anchor="middle" x="705.5769230769232" y="501.6" font-family="Arial" font-size="16" stroke="none" stroke-width="0" fill="#444444">0.64</text></g><g><text text-anchor="middle" x="741.1538461538463" y="522.6" font-family="Arial" font-size="16" stroke="none" stroke-width="0" fill="#444444">0.66</text></g><g><text text-anchor="middle" x="776.7307692307694" y="501.6" font-family="Arial" font-size="16" stroke="none" stroke-width="0" fill="#444444">0.68</text></g><g><text text-anchor="middle" x="812.3076923076923" y="522.6" font-family="Arial" font-size="16" stroke="none" stroke-width="0" fill="#444444">0.70</text></g><g><text text-anchor="middle" x="847.8846153846154" y="501.6" font-family="Arial" font-size="16" stroke="none" stroke-width="0" fill="#444444">0.72</text></g><g><text text-anchor="middle" x="883.4615384615385" y="522.6" font-family="Arial" font-size="16" stroke="none" stroke-width="0" fill="#444444">0.74</text></g><g><text text-anchor="middle" x="919.0384615384615" y="501.6" font-family="Arial" font-size="16" stroke="none" stroke-width="0" fill="#444444">0.76</text></g><g><text text-anchor="middle" x="954.6153846153846" y="522.6" font-family="Arial" font-size="16" stroke="none" stroke-width="0" fill="#444444">0.78</text></g><g><text text-anchor="middle" x="990.1923076923077" y="501.6" font-family="Arial" font-size="16" stroke="none" stroke-width="0" fill="#444444">0.80</text></g><g><text text-anchor="middle" x="1025.7692307692305" y="522.6" font-family="Arial" font-size="16" stroke="none" stroke-width="0" fill="#444444">0.82</text></g><g><text text-anchor="middle" x="1061.3461538461538" y="501.6" font-family="Arial" font-size="16" stroke="none" stroke-width="0" fill="#444444">0.84</text></g><g><text text-anchor="middle" x="1096.9230769230767" y="522.6" font-family="Arial" font-size="16" stroke="none" stroke-width="0" fill="#444444">0.86</text></g><g><text text-anchor="middle" x="1132.5" y="501.6" font-family="Arial" font-size="16" stroke="none" stroke-width="0" fill="#444444">0.88</text></g><g><text text-anchor="end" x="191" y="483.1" font-family="Arial" font-size="16" stroke="none" stroke-width="0" fill="#444444">0</text></g><g><text text-anchor="end" x="191" y="442.65560000000005" font-family="Arial" font-size="16" stroke="none" stroke-width="0" fill="#444444">100</text></g><g><text text-anchor="end" x="191" y="402.21110000000004" font-family="Arial" font-size="16" stroke="none" stroke-width="0" fill="#444444">200</text></g><g><text text-anchor="end" x="191" y="361.7667" font-family="Arial" font-size="16" stroke="none" stroke-width="0" fill="#444444">300</text></g><g><text text-anchor="end" x="191" y="321.3222" font-family="Arial" font-size="16" stroke="none" stroke-width="0" fill="#444444">400</text></g><g><text text-anchor="end" x="191" y="280.87780000000004" font-family="Arial" font-size="16" stroke="none" stroke-width="0" fill="#444444">500</text></g><g><text text-anchor="end" x="191" y="240.4333" font-family="Arial" font-size="16" stroke="none" stroke-width="0" fill="#444444">600</text></g><g><text text-anchor="end" x="191" y="199.9889" font-family="Arial" font-size="16" stroke="none" stroke-width="0" fill="#444444">700</text></g><g><text text-anchor="end" x="191" y="159.5444" font-family="Arial" font-size="16" stroke="none" stroke-width="0" fill="#444444">800</text></g><g><text text-anchor="end" x="191" y="119.1" font-family="Arial" font-size="16" stroke="none" stroke-width="0" fill="#444444">900</text></g></g></g><g><g><text text-anchor="middle" x="670" y="563.6" font-family="Arial" font-size="16" font-style="italic" stroke="none" stroke-width="0" fill="#222222">NDVI Value</text><rect x="207" y="550" width="926" height="16" stroke="none" stroke-width="0" fill-opacity="0" fill="#ffffff"></rect></g><g><text text-anchor="middle" x="87.6" y="295.5" font-family="Arial" font-size="16" font-style="italic" transform="rotate(-90 87.6 295.5)" stroke="none" stroke-width="0" fill="#222222">Frequency</text><path d="M73.99999999999999,478L74.00000000000001,113L90.00000000000001,113L89.99999999999999,478Z" stroke="none" stroke-width="0" fill-opacity="0" fill="#ffffff"></path></g></g><g></g></svg>